<svg width="24" height="24" viewBox="0 0 24 24" fill="none" xmlns="http://www.w3.org/2000/svg">
<g clip-path="url(#clip0_3223_53669)">
<path d="M6.5 1V23M17.5 1V23M1 6.5H6.5M1 17.5H6.5M1 12H23M17.5 6.5H23M17.5 17.5H23M1 3.75C1 3.02065 1.28973 2.32118 1.80546 1.80546C2.32118 1.28973 3.02065 1 3.75 1H20.25C20.9793 1 21.6788 1.28973 22.1945 1.80546C22.7103 2.32118 23 3.02065 23 3.75V20.25C23 20.9793 22.7103 21.6788 22.1945 22.1945C21.6788 22.7103 20.9793 23 20.25 23H3.75C3.02065 23 2.32118 22.7103 1.80546 22.1945C1.28973 21.6788 1 20.9793 1 20.25V3.75Z" stroke="#5F6368" stroke-width="2" stroke-linecap="round" stroke-linejoin="round"/>
</g>
<defs>
<clipPath id="clip0_3223_53669">
<rect width="24" height="24" fill="white"/>
</clipPath>
</defs>
</svg>

